<svg id="visual" viewBox="0 0 960 540" width="960" height="540" xmlns="http://www.w3.org/2000/svg" xmlns:xlink="http://www.w3.org/1999/xlink" version="1.1"><rect x="0" y="0" width="960" height="540" fill="#000000"></rect><path d="M0 500L22.8 500.5C45.7 501 91.3 502 137 498.2C182.7 494.3 228.3 485.7 274 480C319.7 474.3 365.3 471.7 411.2 469.2C457 466.7 503 464.3 548.8 466.5C594.7 468.7 640.3 475.3 686 483.7C731.7 492 777.3 502 823 502.8C868.7 503.7 914.3 495.3 937.2 491.2L960 487L960 541L937.2 541C914.3 541 868.7 541 823 541C777.3 541 731.7 541 686 541C640.3 541 594.7 541 548.8 541C503 541 457 541 411.2 541C365.3 541 319.7 541 274 541C228.3 541 182.7 541 137 541C91.3 541 45.7 541 22.8 541L0 541Z" fill="#171717" stroke-linecap="round" stroke-linejoin="miter"></path></svg>