<svg id="visual" viewBox="0 0 960 540" width="960" height="540" xmlns="http://www.w3.org/2000/svg" xmlns:xlink="http://www.w3.org/1999/xlink" version="1.1"><rect x="0" y="0" width="960" height="540" fill="#000000"></rect><path d="M0 490L22.8 488C45.7 486 91.3 482 137 483.5C182.7 485 228.3 492 274 497.2C319.7 502.3 365.3 505.7 411.2 503.5C457 501.3 503 493.7 548.8 492.8C594.7 492 640.3 498 686 500.7C731.7 503.3 777.3 502.7 823 500.5C868.7 498.3 914.3 494.7 937.2 492.8L960 491L960 541L937.2 541C914.3 541 868.7 541 823 541C777.3 541 731.7 541 686 541C640.3 541 594.7 541 548.8 541C503 541 457 541 411.2 541C365.3 541 319.7 541 274 541C228.3 541 182.7 541 137 541C91.3 541 45.7 541 22.8 541L0 541Z" fill="#171717" stroke-linecap="round" stroke-linejoin="miter"></path></svg>