<svg id="visual" viewBox="0 0 960 540" width="960" height="540" xmlns="http://www.w3.org/2000/svg" xmlns:xlink="http://www.w3.org/1999/xlink" version="1.1"><rect x="0" y="0" width="960" height="540" fill="#171717"></rect><path d="M0 480L22.8 483C45.7 486 91.3 492 137 486.2C182.7 480.3 228.3 462.7 274 459.5C319.7 456.3 365.3 467.7 411.2 469.2C457 470.7 503 462.3 548.8 453.5C594.7 444.7 640.3 435.3 686 437.8C731.7 440.3 777.3 454.7 823 462.8C868.7 471 914.3 473 937.2 474L960 475L960 541L937.2 541C914.3 541 868.7 541 823 541C777.3 541 731.7 541 686 541C640.3 541 594.7 541 548.8 541C503 541 457 541 411.2 541C365.3 541 319.7 541 274 541C228.3 541 182.7 541 137 541C91.3 541 45.7 541 22.8 541L0 541Z" fill="#000000" stroke-linecap="round" stroke-linejoin="miter"></path></svg>